<svg xmlns="http://www.w3.org/2000/svg" viewBox="0 0 297.2 334.59"><defs><style>.cls-1{fill:#1d1d1b;stroke:#fff;stroke-miterlimit:10;}</style></defs><g id="Camada_2" data-name="Camada 2"><g id="Camada_1-2" data-name="Camada 1"><path class="cls-1" d="M148.6,36.59A110.78,110.78,0,0,0,37.81,147.37C37.81,252.27,148.6,334,148.6,334s110.78-81.7,110.78-186.6A110.78,110.78,0,0,0,148.6,36.59Zm.86,149a40.36,40.36,0,1,1,40.36-40.36A40.36,40.36,0,0,1,149.46,185.6Z"/><path class="cls-1" d="M27.41,172.42.75,148.6,27.4,124.8a124.66,124.66,0,0,0,0,47.62Z"/><path class="cls-1" d="M269.81,172.35a124.79,124.79,0,0,0,0-47.49l26.64,23.74Z"/><path class="cls-1" d="M172.36,27.41a124.62,124.62,0,0,0-47.51,0L148.6.75Z"/><path class="cls-1" d="M253.15,44.06,251.1,79.7a124.23,124.23,0,0,0-33.61-33.6Z"/><path class="cls-1" d="M66.62,255.34l-34.94-7.62,11.49-33.86A124.25,124.25,0,0,0,66.62,255.34Z"/><path class="cls-1" d="M79.71,46.1A124.23,124.23,0,0,0,46.1,79.7l-2-35.64Z"/><path class="cls-1" d="M265.85,247.81l-34.74,8.53a124,124,0,0,0,22.35-42.08Z"/></g></g></svg>